<svg width="21" height="17" viewBox="0 0 21 17" fill="none" xmlns="http://www.w3.org/2000/svg">
<path id="Vector" d="M17.1392 0H3.13916C2.34351 0 1.58045 0.335825 1.01784 0.933597C0.455231 1.53137 0.13916 2.34212 0.13916 3.1875V13.8125C0.13916 14.6579 0.455231 15.4686 1.01784 16.0664C1.58045 16.6642 2.34351 17 3.13916 17H17.1392C17.9348 17 18.6979 16.6642 19.2605 16.0664C19.8231 15.4686 20.1392 14.6579 20.1392 13.8125V3.1875C20.1392 2.34212 19.8231 1.53137 19.2605 0.933597C18.6979 0.335825 17.9348 0 17.1392 0ZM18.1392 13.8125C18.1399 13.9523 18.1147 14.0909 18.0649 14.2204C18.0152 14.3499 17.9418 14.4676 17.8492 14.5669L14.1392 10.625L12.1392 12.75L6.13916 6.375L2.13916 10.625V3.1875C2.13916 2.90571 2.24452 2.63546 2.43205 2.4362C2.61959 2.23694 2.87394 2.125 3.13916 2.125H17.1392C17.4044 2.125 17.6587 2.23694 17.8463 2.4362C18.0338 2.63546 18.1392 2.90571 18.1392 3.1875V13.8125ZM16.1392 6.375C16.1392 6.79529 16.0219 7.20613 15.8021 7.55559C15.5823 7.90504 15.27 8.17741 14.9045 8.33824C14.5391 8.49908 14.1369 8.54116 13.749 8.45917C13.361 8.37718 13.0047 8.17479 12.7249 7.8776C12.4452 7.58042 12.2548 7.20178 12.1776 6.78957C12.1004 6.37736 12.14 5.95009 12.2914 5.5618C12.4428 5.17351 12.6991 4.84163 13.028 4.60813C13.3569 4.37463 13.7436 4.25 14.1392 4.25C14.6696 4.25 15.1783 4.47388 15.5534 4.8724C15.9284 5.27091 16.1392 5.81141 16.1392 6.375Z" fill="#378FE9"/>
</svg>
