<svg width="17" height="16" viewBox="0 0 17 16" fill="none" xmlns="http://www.w3.org/2000/svg">
<rect width="17" height="16" fill="#1E1E1E"/>
<g id="www.linkedin.com by html.to.design &#226;&#157;&#164;&#239;&#184;&#143; FREE version - 16/12/2023, 13:07:53 GMT+5:30">
<rect width="1519.2" height="3230.01" transform="translate(-476 -898)" fill="#F4F2EE"/>
<g id="div#voyager-feed">
<rect width="1519" height="3230" transform="translate(-476 -825)" fill="#F4F4F4"/>
<g id="div.scaffold-layout">
<g id="div.scaffold-layout__inner">
<g id="div.scaffold-layout__row">
<g id="Main - Main Feed">
<g id="Region" filter="url(#filter0_d_0_1)">
<g clip-path="url(#clip0_0_1)">
<rect x="-15.6304" y="-694" width="555" height="778.49" rx="8" fill="white"/>
<g id="div.h2d-280cab4f">
<g id="div#ember45">
<g id="div.social-details-social-counts">
<path d="M523.37 27.69H0.369629V29.29H523.37V27.69Z" fill="#8C8C8C" fill-opacity="0.2" mask="url(#path-2-inside-1_0_1)"/>
<g id="div.display-flex" clip-path="url(#clip1_0_1)">
<g id="div.relative">
<g id="List">
<g id="Item">
<g id="Button - 3 reactions on Gaurav Hedau&#226;&#128;&#153;s post">
<g id="8ekq8gho1ruaf8i7f86vd1ftt" clip-path="url(#clip2_0_1)">
<g id="8ekq8gho1ruaf8i7f86vd1ftt fill" clip-path="url(#clip3_0_1)">
<g id="8ekq8gho1ruaf8i7f86vd1ftt_2" clip-path="url(#clip4_0_1)">
<g id="Group">
<path id="Vector" d="M8 15C11.866 15 15 11.866 15 8C15 4.13401 11.866 1 8 1C4.13401 1 1 4.13401 1 8C1 11.866 4.13401 15 8 15Z" fill="#378FE9"/>
<path id="Vector_2" fill-rule="evenodd" clip-rule="evenodd" d="M11.93 7.25H11.38C11.33 7.25 11.23 7.06 10.98 6.79C10.61 6.39 10.2 5.88 9.91002 5.6C9.18946 4.97644 8.6012 4.21476 8.18002 3.36C7.94002 2.85 7.92002 2.62 7.43002 2.62C7.23747 2.64719 7.06202 2.74533 6.93807 2.89518C6.81413 3.04502 6.75063 3.23576 6.76002 3.43C6.76002 3.57 6.83002 4.06 6.86002 4.23C7.0729 5.01232 7.41057 5.7552 7.86002 6.43H4.12002C3.99819 6.42913 3.87752 6.45357 3.76563 6.50177C3.65374 6.54997 3.55308 6.62087 3.47002 6.71C3.38655 6.79705 3.3228 6.90105 3.28311 7.01494C3.24343 7.12882 3.22873 7.24992 3.24002 7.37C3.25543 7.60429 3.36081 7.82356 3.53413 7.98197C3.70744 8.14038 3.93528 8.22566 4.17002 8.22H4.33002C4.12294 8.22763 3.92644 8.31338 3.78002 8.46C3.64238 8.60579 3.56704 8.79952 3.57002 9C3.57175 9.2015 3.64853 9.39512 3.78537 9.54305C3.9222 9.69098 4.10926 9.78259 4.31002 9.8C4.18782 9.89349 4.09517 10.0202 4.04318 10.165C3.99118 10.3099 3.98206 10.4666 4.01688 10.6165C4.05171 10.7663 4.12902 10.903 4.23954 11.01C4.35006 11.1171 4.48911 11.19 4.64002 11.22C4.54145 11.3853 4.50929 11.5819 4.55002 11.77C4.60275 11.9538 4.71459 12.1152 4.86824 12.2291C5.02189 12.3429 5.20879 12.403 5.40002 12.4H7.69002C7.98999 12.3986 8.28873 12.3617 8.58002 12.29L10 11.89H11.9C12.92 11.85 13.19 7.25 11.93 7.25Z" fill="#D0E8FF"/>
<path id="Vector_3" d="M7.79953 6.42003H4.47953C4.35314 6.41885 4.22798 6.44491 4.11256 6.49644C3.99714 6.54796 3.89418 6.62375 3.81068 6.71864C3.72718 6.81353 3.6651 6.92529 3.62866 7.04632C3.59223 7.16735 3.58229 7.29481 3.59953 7.42003C3.61973 7.65164 3.72686 7.86703 3.89939 8.02286C4.07193 8.1787 4.29707 8.26344 4.52953 8.26003H4.68953C4.48246 8.26766 4.28596 8.35341 4.13953 8.50003C4.06895 8.57465 4.01401 8.66263 3.97794 8.75881C3.94188 8.85498 3.92542 8.9574 3.92953 9.06003C3.93321 9.26196 4.01039 9.45562 4.14662 9.60473C4.28284 9.75384 4.46876 9.84816 4.66953 9.87003C4.57391 9.94505 4.49639 10.0406 4.44272 10.1497C4.38906 10.2588 4.36063 10.3785 4.35953 10.5C4.35815 10.6881 4.42226 10.8708 4.54086 11.0168C4.65946 11.1627 4.82516 11.2629 5.00953 11.3C4.91032 11.4688 4.8782 11.6687 4.91953 11.86C4.97259 12.0429 5.08484 12.203 5.23867 12.3152C5.39249 12.4274 5.57921 12.4854 5.76953 12.48H8.05953C8.3595 12.4786 8.65825 12.4417 8.94953 12.37L10.3695 11.9H12.2695C13.2695 11.9 13.5395 7.26003 12.2695 7.26003C12.0863 7.27012 11.9027 7.27012 11.7195 7.26003C11.7195 7.26003 11.5695 7.07003 11.3195 6.80003C10.9495 6.40003 10.5395 5.89003 10.2495 5.61003C9.53772 4.98161 8.95959 4.21644 8.54953 3.36003C8.46827 3.17229 8.36051 2.99718 8.22953 2.84003C8.06298 2.69997 7.84809 2.63092 7.63112 2.64775C7.41416 2.66459 7.21249 2.76595 7.06953 2.93003C6.9659 3.04211 6.88144 3.1705 6.81953 3.31003C6.78042 3.40707 6.75029 3.50749 6.72953 3.61003C6.7027 3.89196 6.72641 4.17642 6.79953 4.45003C6.85921 4.73889 6.94973 5.0205 7.06953 5.29003C7.259 5.64254 7.47989 5.97724 7.72953 6.29003C7.76039 6.30904 7.78479 6.33692 7.79953 6.37003" stroke="#004182" stroke-linecap="round" stroke-linejoin="round"/>
</g>
</g>
</g>
</g>
</g>
</g>
</g>
</g>
</g>
</g>
</g>
</g>
</g>
</g>
</g>
</g>
</g>
</g>
</g>
</g>
<defs>
<filter id="filter0_d_0_1" x="-19.6304" y="-694" width="563" height="786.49" filterUnits="userSpaceOnUse" color-interpolation-filters="sRGB">
<feFlood flood-opacity="0" result="BackgroundImageFix"/>
<feColorMatrix in="SourceAlpha" type="matrix" values="0 0 0 0 0 0 0 0 0 0 0 0 0 0 0 0 0 0 127 0" result="hardAlpha"/>
<feOffset dy="4"/>
<feGaussianBlur stdDeviation="2"/>
<feComposite in2="hardAlpha" operator="out"/>
<feColorMatrix type="matrix" values="0 0 0 0 0 0 0 0 0 0 0 0 0 0 0 0 0 0 0.25 0"/>
<feBlend mode="normal" in2="BackgroundImageFix" result="effect1_dropShadow_0_1"/>
<feBlend mode="normal" in="SourceGraphic" in2="effect1_dropShadow_0_1" result="shape"/>
</filter>
<clipPath id="clip0_0_1">
<rect x="-15.6304" y="-694" width="555" height="778.49" rx="8" fill="white"/>
</clipPath>
<clipPath id="clip1_0_1">
<rect width="479.84" height="21.69" fill="white" transform="translate(0.369629 -2)"/>
</clipPath>
<clipPath id="clip2_0_1">
<rect width="16" height="16" fill="white" transform="translate(0.369629 -0.0100098)"/>
</clipPath>
<clipPath id="clip3_0_1">
<rect width="16" height="16" fill="white" transform="translate(0.369629 -0.0100098)"/>
</clipPath>
<clipPath id="clip4_0_1">
<rect width="16" height="16" fill="white" transform="translate(0.369629 -0.0100098)"/>
</clipPath>
</defs>
</svg>
