<svg width="21" height="18" viewBox="0 0 21 18" fill="none" xmlns="http://www.w3.org/2000/svg">
<path id="Vector" d="M0.13916 0V15C0.13916 16.66 1.62805 18 3.47249 18H16.8058C18.6503 18 20.1392 16.66 20.1392 15V0H0.13916ZM14.5836 1.75C14.952 1.75 15.3052 1.8817 15.5657 2.11612C15.8262 2.35054 15.9725 2.66848 15.9725 3C15.9725 3.33152 15.8262 3.64946 15.5657 3.88388C15.3052 4.1183 14.952 4.25 14.5836 4.25C14.2152 4.25 13.862 4.1183 13.6015 3.88388C13.341 3.64946 13.1947 3.33152 13.1947 3C13.1947 2.66848 13.341 2.35054 13.6015 2.11612C13.862 1.8817 14.2152 1.75 14.5836 1.75ZM5.69472 1.75C6.06307 1.75 6.41634 1.8817 6.67681 2.11612C6.93728 2.35054 7.0836 2.66848 7.0836 3C7.0836 3.33152 6.93728 3.64946 6.67681 3.88388C6.41634 4.1183 6.06307 4.25 5.69472 4.25C5.32636 4.25 4.97309 4.1183 4.71262 3.88388C4.45216 3.64946 4.30583 3.33152 4.30583 3C4.30583 2.66848 4.45216 2.35054 4.71262 2.11612C4.97309 1.8817 5.32636 1.75 5.69472 1.75ZM17.9169 15C17.9169 15.55 17.4169 16 16.8058 16H3.47249C2.86138 16 2.36138 15.55 2.36138 15V6H17.9169V15ZM4.5836 8H6.80583V10H4.5836V8ZM4.5836 12H6.80583V14H4.5836V12ZM9.02805 8H11.2503V10H9.02805V8ZM9.02805 12H11.2503V14H9.02805V12ZM13.4725 8H15.6947V10H13.4725V8ZM13.4725 12H15.6947V14H13.4725V12Z" fill="#C37D16"/>
</svg>
