<svg width="69" height="69" viewBox="0 0 69 69" fill="none" xmlns="http://www.w3.org/2000/svg">
<g filter="url(#filter0_d_1257_3127)">
<rect x="10.25" y="10.1121" width="44" height="44" rx="8" fill="white" shape-rendering="crispEdges"/>
<path d="M40.7115 22.1121H23.7885C23.3804 22.1121 22.9891 22.2741 22.7006 22.5627C22.4121 22.8512 22.25 23.2425 22.25 23.6505V40.5736C22.25 40.9816 22.4121 41.3729 22.7006 41.6615C22.9891 41.95 23.3804 42.1121 23.7885 42.1121H40.7115C41.1196 42.1121 41.5109 41.95 41.7994 41.6615C42.0879 41.3729 42.25 40.9816 42.25 40.5736V23.6505C42.25 23.2425 42.0879 22.8512 41.7994 22.5627C41.5109 22.2741 41.1196 22.1121 40.7115 22.1121ZM40.7115 40.5736H23.7885V23.6505H40.7115V40.5736ZM29.1731 30.5736V36.7274C29.1731 36.9315 29.092 37.1271 28.9478 37.2714C28.8035 37.4156 28.6079 37.4967 28.4038 37.4967C28.1998 37.4967 28.0042 37.4156 27.8599 37.2714C27.7157 37.1271 27.6346 36.9315 27.6346 36.7274V30.5736C27.6346 30.3696 27.7157 30.1739 27.8599 30.0297C28.0042 29.8854 28.1998 29.8044 28.4038 29.8044C28.6079 29.8044 28.8035 29.8854 28.9478 30.0297C29.092 30.1739 29.1731 30.3696 29.1731 30.5736ZM37.6346 33.2659V36.7274C37.6346 36.9315 37.5536 37.1271 37.4093 37.2714C37.2651 37.4156 37.0694 37.4967 36.8654 37.4967C36.6614 37.4967 36.4657 37.4156 36.3215 37.2714C36.1772 37.1271 36.0962 36.9315 36.0962 36.7274V33.2659C36.0962 32.7559 35.8935 32.2667 35.5329 31.9061C35.1723 31.5454 34.6831 31.3428 34.1731 31.3428C33.663 31.3428 33.1739 31.5454 32.8133 31.9061C32.4526 32.2667 32.25 32.7559 32.25 33.2659V36.7274C32.25 36.9315 32.169 37.1271 32.0247 37.2714C31.8804 37.4156 31.6848 37.4967 31.4808 37.4967C31.2768 37.4967 31.0811 37.4156 30.9368 37.2714C30.7926 37.1271 30.7115 36.9315 30.7115 36.7274V30.5736C30.7125 30.3852 30.7826 30.2037 30.9085 30.0635C31.0344 29.9233 31.2074 29.8342 31.3946 29.8131C31.5818 29.792 31.7703 29.8403 31.9242 29.949C32.0782 30.0576 32.1869 30.219 32.2298 30.4024C32.7502 30.0494 33.3569 29.8448 33.9848 29.8106C34.6126 29.7764 35.238 29.9139 35.7936 30.2083C36.3493 30.5027 36.8142 30.9428 37.1386 31.4815C37.4629 32.0202 37.6344 32.6371 37.6346 33.2659ZM29.5577 27.8813C29.5577 28.1095 29.49 28.3326 29.3632 28.5223C29.2364 28.7121 29.0562 28.86 28.8454 28.9473C28.6346 29.0346 28.4026 29.0575 28.1787 29.013C27.9549 28.9684 27.7493 28.8586 27.588 28.6972C27.4266 28.5358 27.3167 28.3302 27.2722 28.1064C27.2276 27.8826 27.2505 27.6506 27.3378 27.4397C27.4252 27.2289 27.5731 27.0487 27.7628 26.9219C27.9526 26.7951 28.1756 26.7274 28.4038 26.7274C28.7099 26.7274 29.0034 26.849 29.2197 27.0654C29.4361 27.2818 29.5577 27.5753 29.5577 27.8813Z" fill="black"/>
</g>
<defs>
<filter id="filter0_d_1257_3127" x="0.25" y="0.112061" width="68" height="68" filterUnits="userSpaceOnUse" color-interpolation-filters="sRGB">
<feFlood flood-opacity="0" result="BackgroundImageFix"/>
<feColorMatrix in="SourceAlpha" type="matrix" values="0 0 0 0 0 0 0 0 0 0 0 0 0 0 0 0 0 0 127 0" result="hardAlpha"/>
<feOffset dx="2" dy="2"/>
<feGaussianBlur stdDeviation="6"/>
<feComposite in2="hardAlpha" operator="out"/>
<feColorMatrix type="matrix" values="0 0 0 0 0.141667 0 0 0 0 0.141667 0 0 0 0 0.141667 0 0 0 0.1 0"/>
<feBlend mode="normal" in2="BackgroundImageFix" result="effect1_dropShadow_1257_3127"/>
<feBlend mode="normal" in="SourceGraphic" in2="effect1_dropShadow_1257_3127" result="shape"/>
</filter>
</defs>
</svg>
