<svg width="20" height="21" viewBox="0 0 20 21" fill="none" xmlns="http://www.w3.org/2000/svg">
<path d="M6.66705 8.77964C6.66705 8.55863 6.75484 8.34667 6.91112 8.19039C7.06739 8.0341 7.27935 7.94631 7.50035 7.94631H12.5002C12.7212 7.94631 12.9332 8.0341 13.0894 8.19039C13.2457 8.34667 13.3335 8.55863 13.3335 8.77964C13.3335 9.00065 13.2457 9.21262 13.0894 9.3689C12.9332 9.52518 12.7212 9.61297 12.5002 9.61297H7.50035C7.27935 9.61297 7.06739 9.52518 6.91112 9.3689C6.75484 9.21262 6.66705 9.00065 6.66705 8.77964ZM7.50035 11.2796C7.27935 11.2796 7.06739 11.3674 6.91112 11.5237C6.75484 11.68 6.66705 11.892 6.66705 12.113C6.66705 12.334 6.75484 12.5459 6.91112 12.7022C7.06739 12.8585 7.27935 12.9463 7.50035 12.9463H10.8336C11.0546 12.9463 11.2666 12.8585 11.4228 12.7022C11.5791 12.5459 11.6669 12.334 11.6669 12.113C11.6669 11.892 11.5791 11.68 11.4228 11.5237C11.2666 11.3674 11.0546 11.2796 10.8336 11.2796H7.50035ZM0.000575426 10.4463C0.00100068 8.24472 0.727929 6.1048 2.0686 4.35852C3.40926 2.61224 5.28872 1.35721 7.41542 0.788115C9.54213 0.219019 11.7972 0.367674 13.8308 1.21102C15.8644 2.05436 17.5628 3.54525 18.6627 5.45241C19.7625 7.35957 20.2023 9.57639 19.9137 11.759C19.6251 13.9416 18.6244 15.9679 17.0667 17.5237C15.509 19.0795 13.4815 20.0777 11.2986 20.3636C9.1157 20.6494 6.89949 20.2069 4.99376 19.1046L1.09721 20.4046C0.953251 20.4527 0.7989 20.4605 0.650814 20.4273C0.502727 20.3941 0.36653 20.321 0.256922 20.216C0.147313 20.111 0.0684559 19.9781 0.0288598 19.8316C-0.0107363 19.6851 -0.0095671 19.5305 0.0322412 19.3846L1.21887 15.233C0.417257 13.765 -0.00172976 12.1189 0.000575426 10.4463ZM10.0003 2.11298C8.52896 2.11289 7.08384 2.50236 5.81183 3.24182C4.53981 3.98128 3.48626 5.04435 2.75825 6.32298C2.03024 7.6016 1.65373 9.05019 1.66701 10.5215C1.68028 11.9928 2.08286 13.4344 2.83383 14.6996C2.8916 14.7974 2.9288 14.9059 2.94313 15.0185C2.95746 15.1312 2.94862 15.2455 2.91716 15.3546L2.06885 18.3213L4.8321 17.4013C4.94945 17.3621 5.07406 17.3496 5.19686 17.3646C5.31966 17.3796 5.43759 17.4217 5.54208 17.488C6.63416 18.1791 7.87204 18.6068 9.15785 18.7371C10.4437 18.8675 11.7422 18.697 12.9508 18.2391C14.1593 17.7811 15.2448 17.0484 16.1214 16.0987C16.9981 15.149 17.6418 14.0084 18.0017 12.7671C18.3617 11.5258 18.428 10.2178 18.1953 8.94647C17.9627 7.67513 17.4376 6.47532 16.6615 5.44188C15.8854 4.40844 14.8795 3.5697 13.7234 2.99195C12.5673 2.4142 11.2927 2.11328 10.0003 2.11298Z" fill="black"/>
</svg>
