<svg width="28" height="29" viewBox="0 0 28 29" fill="none" xmlns="http://www.w3.org/2000/svg">
<path fill-rule="evenodd" clip-rule="evenodd" d="M5.83333 13.7213C5.83333 9.86077 8.97283 6.72127 12.8333 6.72127C16.6938 6.72127 19.8333 9.86077 19.8333 13.7213C19.8333 17.5818 16.6938 20.7213 12.8333 20.7213C8.97283 20.7213 5.83333 17.5818 5.83333 13.7213ZM24.1582 23.3964L20.1973 19.4344C21.4258 17.8548 22.1667 15.8749 22.1667 13.7213C22.1667 8.57511 17.9795 4.38794 12.8333 4.38794C7.68717 4.38794 3.5 8.57511 3.5 13.7213C3.5 18.8674 7.68717 23.0546 12.8333 23.0546C14.987 23.0546 16.9668 22.3138 18.5465 21.0853L22.5085 25.0461C22.736 25.2736 23.0347 25.3879 23.3333 25.3879C23.632 25.3879 23.9307 25.2736 24.1582 25.0461C24.6143 24.5899 24.6143 23.8526 24.1582 23.3964Z" fill="#998E8E"/>
</svg>
